<svg xmlns="http://www.w3.org/2000/svg" xmlns:xlink="http://www.w3.org/1999/xlink" width="96" zoomAndPan="magnify" viewBox="0 0 72 143.999998" height="192" preserveAspectRatio="xMidYMid meet" version="1.0"><defs><clipPath id="bd238f3478"><path d="M 48 56.347656 L 60.851562 56.347656 L 60.851562 76 L 48 76 Z M 48 56.347656 " clip-rule="nonzero"/></clipPath></defs><rect x="-7.2" width="86.4" fill="#ffffff" y="-14.4" height="172.799997" fill-opacity="1"/><rect x="-7.2" width="86.4" fill="#ffffff" y="-14.4" height="172.799997" fill-opacity="1"/><path fill="#c28045" d="M 53.136719 71.539062 C 52.992188 71.214844 52.589844 70.914062 52.347656 70.675781 C 51.75 70.085938 51.148438 69.507812 50.484375 68.996094 C 49.183594 67.992188 47.570312 66.765625 45.878906 66.59375 C 43.9375 66.398438 42.652344 68.371094 43.351562 70.132812 C 43.832031 71.351562 45.019531 72.003906 46.242188 72.273438 C 48.171875 72.703125 50.492188 72.628906 52.324219 71.820312 " fill-opacity="1" fill-rule="evenodd"/><path fill="#512a03" d="M 52.9375 72.269531 C 53.101562 72.316406 53.28125 72.308594 53.449219 72.230469 C 53.832031 72.058594 54 71.609375 53.828125 71.226562 C 53.648438 70.828125 53.179688 70.429688 52.882812 70.132812 C 52.261719 69.527344 51.636719 68.925781 50.949219 68.394531 C 49.546875 67.308594 47.78125 66.023438 45.957031 65.835938 C 43.433594 65.582031 41.738281 68.125 42.644531 70.414062 C 43.222656 71.875 44.613281 72.691406 46.078125 73.019531 C 48.15625 73.480469 50.65625 73.382812 52.632812 72.515625 C 52.757812 72.460938 52.859375 72.375 52.9375 72.269531 Z M 51.808594 71.210938 C 51.234375 70.644531 50.65625 70.089844 50.019531 69.597656 C 48.824219 68.671875 47.359375 67.507812 45.800781 67.351562 C 44.4375 67.210938 43.566406 68.617188 44.058594 69.855469 C 44.445312 70.832031 45.425781 71.316406 46.40625 71.53125 C 48.113281 71.914062 50.152344 71.871094 51.808594 71.210938 Z M 51.808594 71.210938 " fill-opacity="1" fill-rule="evenodd"/><path fill="#c28045" d="M 56.246094 68.167969 C 56.378906 68.023438 56.402344 67.675781 56.433594 67.496094 C 56.554688 66.863281 56.605469 66.21875 56.625 65.574219 C 56.683594 63.609375 56.257812 61.433594 54.835938 59.980469 C 54.5 59.632812 54.101562 59.332031 53.660156 59.128906 C 51.714844 58.242188 49.84375 59.882812 49.332031 61.691406 C 49.121094 62.441406 49.074219 63.238281 49.132812 64.015625 C 49.21875 65.140625 49.550781 66.296875 49.996094 67.332031 C 50.589844 68.710938 51.609375 69.730469 52.714844 70.703125 " fill-opacity="1" fill-rule="evenodd"/><path fill="#512a03" d="M 55.621094 67.734375 C 55.40625 68.042969 55.449219 68.472656 55.734375 68.730469 C 56.046875 69.011719 56.527344 68.988281 56.808594 68.679688 C 56.910156 68.566406 57 68.414062 57.0625 68.230469 C 57.125 68.035156 57.15625 67.785156 57.183594 67.636719 C 57.308594 66.964844 57.363281 66.28125 57.382812 65.597656 C 57.449219 63.4375 56.945312 61.050781 55.378906 59.449219 C 54.976562 59.035156 54.5 58.679688 53.976562 58.4375 C 51.585938 57.351562 49.230469 59.261719 48.601562 61.484375 C 48.363281 62.320312 48.308594 63.207031 48.375 64.074219 C 48.46875 65.28125 48.820312 66.519531 49.296875 67.628906 C 49.933594 69.117188 51.019531 70.222656 52.210938 71.273438 C 52.523438 71.550781 53.003906 71.523438 53.285156 71.207031 C 53.5625 70.890625 53.53125 70.410156 53.214844 70.132812 C 52.195312 69.234375 51.242188 68.304688 50.695312 67.03125 C 50.28125 66.070312 49.972656 65 49.890625 63.957031 C 49.839844 63.269531 49.875 62.5625 50.0625 61.898438 C 50.457031 60.5 51.84375 59.136719 53.34375 59.820312 C 53.699219 59.984375 54.019531 60.230469 54.292969 60.507812 C 55.570312 61.816406 55.917969 63.789062 55.863281 65.550781 C 55.847656 66.15625 55.800781 66.761719 55.6875 67.359375 C 55.671875 67.441406 55.632812 67.671875 55.621094 67.734375 Z M 55.621094 67.734375 " fill-opacity="1" fill-rule="evenodd"/><path fill="#ffffff" d="M 54.332031 66.070312 C 54.332031 66.121094 54.328125 66.417969 54.363281 66.535156 C 54.410156 66.707031 54.511719 66.820312 54.613281 66.890625 C 54.859375 67.054688 55.195312 66.992188 55.363281 66.742188 C 55.46875 66.585938 55.484375 66.390625 55.414062 66.226562 C 55.414062 66.164062 55.417969 66.046875 55.414062 66.019531 C 55.394531 65.648438 55.34375 65.28125 55.28125 64.914062 C 55.085938 63.730469 54.855469 62.335938 53.964844 61.445312 C 53.753906 61.234375 53.410156 61.234375 53.195312 61.445312 C 52.984375 61.65625 52.984375 62 53.195312 62.210938 C 53.929688 62.945312 54.050781 64.117188 54.210938 65.089844 C 54.265625 65.414062 54.3125 65.742188 54.332031 66.070312 Z M 54.332031 66.070312 " fill-opacity="1" fill-rule="evenodd"/><path fill="#ffffff" d="M 51.410156 61.34375 L 51.410156 61.347656 L 51.40625 61.359375 L 51.40625 61.375 L 51.402344 61.378906 C 51.371094 61.546875 51.417969 61.726562 51.546875 61.859375 C 51.714844 62.03125 51.878906 62.03125 51.976562 62.023438 C 52.09375 62.011719 52.195312 61.972656 52.285156 61.894531 C 52.347656 61.839844 52.476562 61.460938 52.476562 61.453125 C 52.46875 61.277344 52.375 61.117188 52.234375 61.027344 C 52.183594 60.992188 52.140625 60.972656 52.097656 60.960938 C 52.0625 60.949219 52.023438 60.941406 51.988281 60.9375 C 51.71875 60.914062 51.476562 61.089844 51.410156 61.34375 Z M 52.476562 61.453125 C 52.476562 61.460938 52.476562 61.515625 52.476562 61.53125 C 52.476562 61.503906 52.480469 61.480469 52.476562 61.453125 Z M 52.003906 60.941406 C 52.121094 60.957031 52.234375 61.011719 52.324219 61.101562 C 52.292969 61.070312 52.261719 61.046875 52.234375 61.027344 C 52.191406 61 52.144531 60.976562 52.097656 60.960938 C 52.0625 60.953125 52.03125 60.945312 52.003906 60.941406 Z M 51.585938 61.066406 Z M 51.757812 60.96875 L 51.753906 60.972656 L 51.761719 60.96875 Z M 51.792969 60.957031 L 51.78125 60.960938 L 51.789062 60.960938 L 51.8125 60.953125 Z M 51.890625 60.941406 L 51.867188 60.945312 C 51.855469 60.945312 51.847656 60.945312 51.839844 60.949219 L 51.816406 60.953125 C 51.839844 60.945312 51.863281 60.941406 51.890625 60.941406 Z M 51.910156 60.9375 L 51.894531 60.941406 L 51.917969 60.9375 L 51.921875 60.9375 Z M 51.949219 60.9375 L 51.957031 60.9375 Z M 51.949219 60.9375 " fill-opacity="1" fill-rule="evenodd"/><g clip-path="url(#bd238f3478)"><path fill="#512a03" d="M 50.078125 75.339844 L 50.148438 75.269531 C 50.394531 75.046875 50.644531 74.828125 50.894531 74.601562 C 51.601562 73.96875 52.289062 73.3125 52.992188 72.671875 C 55.125 70.730469 57.351562 68.582031 58.691406 65.992188 C 59.796875 63.859375 60.632812 60.777344 59.6875 58.421875 C 59.273438 57.402344 58.359375 56.59375 57.242188 56.464844 C 56.214844 56.351562 55.050781 56.808594 54.824219 57.945312 C 54.742188 58.355469 55.007812 58.757812 55.417969 58.839844 C 55.832031 58.921875 56.230469 58.65625 56.3125 58.242188 C 56.339844 58.109375 56.460938 58.050781 56.578125 58.015625 C 56.734375 57.964844 56.910156 57.957031 57.070312 57.976562 C 57.632812 58.039062 58.070312 58.480469 58.277344 58.992188 C 59.066406 60.957031 58.261719 63.515625 57.339844 65.296875 C 56.082031 67.726562 53.972656 69.726562 51.96875 71.550781 C 51.269531 72.1875 50.585938 72.839844 49.882812 73.46875 C 49.628906 73.695312 49.375 73.917969 49.125 74.148438 C 49.109375 74.164062 48.9375 74.3125 48.859375 74.410156 C 48.753906 74.539062 48.707031 74.667969 48.6875 74.746094 C 48.59375 75.109375 48.734375 75.363281 48.949219 75.535156 C 49.277344 75.800781 49.753906 75.746094 50.019531 75.421875 C 50.039062 75.394531 50.058594 75.363281 50.078125 75.339844 Z M 50.183594 74.863281 C 50.164062 74.644531 50.058594 74.476562 49.902344 74.351562 C 50.066406 74.484375 50.160156 74.667969 50.183594 74.863281 Z M 50.183594 74.863281 " fill-opacity="1" fill-rule="evenodd"/></g><path fill="#5c370f" d="M 13.128906 77.144531 C 13 76.910156 12.707031 76.824219 12.472656 76.953125 C 12.234375 77.082031 12.148438 77.375 12.273438 77.609375 C 12.402344 77.847656 12.699219 77.933594 12.9375 77.804688 C 13.171875 77.679688 13.257812 77.382812 13.128906 77.144531 Z M 13.503906 75.730469 C 13.652344 75.507812 13.589844 75.203125 13.367188 75.054688 C 13.144531 74.90625 12.839844 74.96875 12.691406 75.191406 C 12.542969 75.417969 12.605469 75.71875 12.828125 75.867188 C 13.054688 76.015625 13.355469 75.953125 13.503906 75.730469 Z M 14.777344 74.265625 C 14.972656 74.078125 14.980469 73.773438 14.792969 73.578125 C 14.609375 73.382812 14.300781 73.375 14.105469 73.5625 C 13.914062 73.746094 13.90625 74.054688 14.089844 74.25 C 14.273438 74.441406 14.582031 74.449219 14.777344 74.265625 Z M 16.308594 73.054688 C 16.535156 72.910156 16.605469 72.609375 16.464844 72.382812 C 16.320312 72.15625 16.019531 72.085938 15.792969 72.226562 C 15.566406 72.371094 15.496094 72.671875 15.640625 72.898438 C 15.78125 73.128906 16.082031 73.195312 16.308594 73.054688 Z M 18.058594 72.21875 C 18.3125 72.128906 18.449219 71.851562 18.359375 71.601562 C 18.273438 71.347656 17.996094 71.210938 17.742188 71.296875 C 17.488281 71.382812 17.351562 71.660156 17.441406 71.914062 C 17.527344 72.167969 17.804688 72.304688 18.058594 72.21875 Z M 21.445312 80.816406 C 21.410156 80.550781 21.164062 80.363281 20.898438 80.402344 C 20.632812 80.4375 20.445312 80.683594 20.480469 80.949219 C 20.519531 81.214844 20.761719 81.402344 21.027344 81.363281 C 21.292969 81.328125 21.480469 81.085938 21.445312 80.816406 Z M 19.941406 71.820312 C 20.210938 71.800781 20.410156 71.566406 20.390625 71.300781 C 20.371094 71.035156 20.136719 70.832031 19.871094 70.851562 C 19.601562 70.875 19.402344 71.105469 19.421875 71.375 C 19.441406 71.640625 19.675781 71.839844 19.941406 71.820312 Z M 21.710938 79.085938 C 21.824219 78.84375 21.71875 78.554688 21.472656 78.4375 C 21.230469 78.324219 20.941406 78.429688 20.828125 78.671875 C 20.714844 78.914062 20.820312 79.203125 21.0625 79.320312 C 21.304688 79.433594 21.59375 79.328125 21.710938 79.085938 Z M 22.210938 82.191406 C 21.984375 82.050781 21.683594 82.121094 21.542969 82.351562 C 21.402344 82.578125 21.472656 82.878906 21.703125 83.019531 C 21.929688 83.160156 22.230469 83.089844 22.371094 82.863281 C 22.511719 82.632812 22.4375 82.332031 22.210938 82.191406 Z M 22.828125 77.617188 C 23.027344 77.4375 23.046875 77.132812 22.867188 76.929688 C 22.691406 76.730469 22.382812 76.710938 22.183594 76.890625 C 21.980469 77.066406 21.960938 77.375 22.140625 77.574219 C 22.316406 77.773438 22.625 77.792969 22.828125 77.617188 Z M 21.835938 71.960938 C 22.09375 72.023438 22.359375 71.859375 22.421875 71.597656 C 22.480469 71.335938 22.320312 71.074219 22.058594 71.011719 C 21.796875 70.949219 21.535156 71.113281 21.472656 71.375 C 21.414062 71.636719 21.574219 71.898438 21.835938 71.960938 Z M 23.773438 82.226562 C 23.519531 82.320312 23.390625 82.601562 23.484375 82.851562 C 23.574219 83.105469 23.851562 83.234375 24.105469 83.144531 C 24.359375 83.050781 24.488281 82.769531 24.394531 82.519531 C 24.304688 82.269531 24.027344 82.136719 23.773438 82.226562 Z M 24.429688 76.757812 C 24.6875 76.679688 24.839844 76.414062 24.765625 76.15625 C 24.691406 75.894531 24.421875 75.746094 24.164062 75.820312 C 23.90625 75.894531 23.757812 76.160156 23.832031 76.421875 C 23.902344 76.679688 24.171875 76.828125 24.429688 76.757812 Z M 23.550781 72.703125 C 23.773438 72.851562 24.078125 72.792969 24.226562 72.566406 C 24.375 72.347656 24.316406 72.042969 24.09375 71.894531 C 23.867188 71.746094 23.566406 71.804688 23.417969 72.027344 C 23.265625 72.253906 23.328125 72.554688 23.550781 72.703125 Z M 25.144531 81.148438 C 24.984375 81.363281 25.03125 81.667969 25.246094 81.828125 C 25.460938 81.988281 25.765625 81.941406 25.925781 81.730469 C 26.085938 81.511719 26.039062 81.210938 25.824219 81.046875 C 25.609375 80.886719 25.304688 80.933594 25.144531 81.148438 Z M 24.898438 74 C 25.058594 74.21875 25.359375 74.265625 25.578125 74.109375 C 25.796875 73.953125 25.847656 73.648438 25.6875 73.429688 C 25.53125 73.214844 25.226562 73.164062 25.007812 73.320312 C 24.792969 73.476562 24.742188 73.78125 24.898438 74 Z M 25.933594 79.46875 C 25.867188 79.726562 26.023438 79.992188 26.28125 80.0625 C 26.542969 80.128906 26.808594 79.972656 26.878906 79.714844 C 26.945312 79.457031 26.789062 79.191406 26.53125 79.121094 C 26.269531 79.054688 26.003906 79.210938 25.933594 79.46875 Z M 26.667969 75.722656 C 26.707031 75.621094 26.714844 75.503906 26.675781 75.386719 C 26.589844 75.132812 26.316406 74.996094 26.058594 75.082031 C 25.804688 75.167969 25.667969 75.445312 25.753906 75.699219 C 25.777344 75.777344 25.824219 75.84375 25.882812 75.898438 C 25.863281 75.949219 25.847656 76 25.847656 76.054688 C 25.835938 76.324219 26.042969 76.550781 26.308594 76.566406 C 26.578125 76.578125 26.804688 76.371094 26.820312 76.101562 C 26.824219 75.953125 26.765625 75.816406 26.667969 75.722656 Z M 26.117188 77.578125 C 26.132812 77.847656 26.359375 78.054688 26.628906 78.039062 C 26.898438 78.027344 27.101562 77.796875 27.089844 77.53125 C 27.074219 77.261719 26.847656 77.054688 26.582031 77.070312 C 26.3125 77.082031 26.105469 77.3125 26.117188 77.578125 Z M 28.226562 76.878906 C 28.488281 76.949219 28.753906 76.796875 28.824219 76.539062 C 28.898438 76.28125 28.742188 76.011719 28.484375 75.941406 C 28.222656 75.871094 27.957031 76.023438 27.886719 76.285156 C 27.816406 76.539062 27.96875 76.808594 28.226562 76.878906 Z M 30.066406 77.566406 C 30.308594 77.679688 30.601562 77.578125 30.714844 77.335938 C 30.832031 77.09375 30.730469 76.804688 30.488281 76.6875 C 30.246094 76.574219 29.957031 76.671875 29.839844 76.917969 C 29.722656 77.160156 29.828125 77.449219 30.066406 77.566406 Z M 31.773438 78.570312 C 31.996094 78.71875 32.300781 78.660156 32.449219 78.441406 C 32.597656 78.21875 32.542969 77.914062 32.320312 77.765625 C 32.097656 77.613281 31.796875 77.671875 31.644531 77.894531 C 31.496094 78.117188 31.550781 78.417969 31.773438 78.570312 Z M 33.414062 79.761719 C 33.628906 79.925781 33.933594 79.882812 34.097656 79.667969 C 34.257812 79.453125 34.21875 79.148438 34.003906 78.988281 C 33.789062 78.824219 33.484375 78.867188 33.320312 79.082031 C 33.160156 79.296875 33.203125 79.601562 33.414062 79.761719 Z M 35.066406 81 C 35.285156 81.15625 35.585938 81.109375 35.746094 80.894531 C 35.902344 80.675781 35.855469 80.371094 35.636719 80.214844 C 35.421875 80.054688 35.117188 80.105469 34.960938 80.324219 C 34.800781 80.539062 34.847656 80.84375 35.066406 81 Z M 36.816406 82.164062 C 37.046875 82.300781 37.347656 82.222656 37.484375 81.992188 C 37.617188 81.757812 37.539062 81.460938 37.308594 81.328125 C 37.078125 81.191406 36.78125 81.265625 36.644531 81.496094 C 36.507812 81.730469 36.585938 82.027344 36.816406 82.164062 Z M 38.753906 83.082031 C 39.011719 83.171875 39.285156 83.039062 39.375 82.78125 C 39.464844 82.527344 39.328125 82.253906 39.074219 82.164062 C 38.824219 82.078125 38.542969 82.210938 38.457031 82.464844 C 38.367188 82.71875 38.503906 82.996094 38.753906 83.082031 Z M 40.917969 83.484375 C 41.1875 83.488281 41.410156 83.273438 41.414062 83.007812 C 41.417969 82.738281 41.203125 82.515625 40.933594 82.511719 C 40.667969 82.507812 40.445312 82.722656 40.441406 82.988281 C 40.4375 83.257812 40.648438 83.480469 40.917969 83.484375 Z M 43.105469 83.125 C 43.355469 83.039062 43.492188 82.761719 43.402344 82.507812 C 43.316406 82.253906 43.039062 82.121094 42.785156 82.210938 C 42.53125 82.296875 42.394531 82.574219 42.484375 82.828125 C 42.570312 83.082031 42.851562 83.214844 43.105469 83.125 Z M 45.042969 82.132812 C 45.265625 81.980469 45.320312 81.679688 45.167969 81.457031 C 45.015625 81.238281 44.714844 81.179688 44.492188 81.332031 C 44.269531 81.484375 44.214844 81.789062 44.367188 82.007812 C 44.519531 82.230469 44.820312 82.285156 45.042969 82.132812 Z M 46.644531 80.640625 C 46.8125 80.429688 46.777344 80.121094 46.566406 79.957031 C 46.355469 79.789062 46.046875 79.824219 45.882812 80.035156 C 45.714844 80.246094 45.75 80.554688 45.960938 80.71875 C 46.171875 80.886719 46.480469 80.851562 46.644531 80.640625 Z M 47.78125 78.824219 C 47.90625 78.585938 47.8125 78.292969 47.578125 78.167969 C 47.339844 78.042969 47.042969 78.136719 46.921875 78.371094 C 46.796875 78.609375 46.890625 78.90625 47.128906 79.027344 C 47.367188 79.152344 47.660156 79.0625 47.78125 78.824219 Z M 47.78125 78.824219 " fill-opacity="1" fill-rule="evenodd"/></svg>